<svg xmlns="http://www.w3.org/2000/svg" width="100" height="100"><g fill="#c0b4a6"><rect width="20" height="20"/><rect width="20" height="20" fill="#e7d2bf" x="20"/><rect width="20" height="20" fill="#e6d8cb" x="40"/><rect width="20" height="20" fill="#ece0d4" x="60"/><rect width="20" height="20" fill="#ebe1d7" x="80"/><rect width="20" height="20" fill="#8b9493" y="20"/><rect width="20" height="20" fill="#eedcc8" x="20" y="20"/><rect width="20" height="20" fill="#e6dac0" x="40" y="20"/><rect width="20" height="20" fill="#eaddcc" x="60" y="20"/><rect width="20" height="20" fill="#eddbc7" x="80" y="20"/><rect width="20" height="20" fill="#cdb295" y="40"/><rect width="20" height="20" fill="#cea879" x="20" y="40"/><rect width="20" height="20" fill="#ddbb62" x="40" y="40"/><rect width="20" height="20" fill="#fbdda1" x="60" y="40"/><rect width="20" height="20" fill="#ffe9c6" x="80" y="40"/><rect width="20" height="20" fill="#e29e4b" y="60"/><rect width="20" height="20" fill="#ffcf63" x="20" y="60"/><rect width="20" height="20" fill="#edd17d" x="40" y="60"/><rect width="20" height="20" fill="#eac590" x="60" y="60"/><rect width="20" height="20" fill="#ffcb7a" x="80" y="60"/><rect width="20" height="20" fill="#e2a65d" y="80"/><rect width="20" height="20" fill="#ebd987" x="20" y="80"/><rect width="20" height="20" fill="#f4e4a8" x="40" y="80"/><rect width="20" height="20" fill="#dbc089" x="60" y="80"/><rect width="20" height="20" fill="#4a2a04" x="80" y="80"/></g></svg>