<svg xmlns="http://www.w3.org/2000/svg" width="100" height="100"><g fill="#222127"><rect width="20" height="20"/><rect width="20" height="20" fill="#0c1117" x="20"/><rect width="20" height="20" fill="#111217" x="40"/><rect width="20" height="20" fill="#151b19" x="60"/><rect width="20" height="20" fill="#121212" x="80"/><rect width="20" height="20" fill="#11111d" y="20"/><rect width="20" height="20" fill="#c78f60" x="20" y="20"/><rect width="20" height="20" fill="#e8edff" x="40" y="20"/><rect width="20" height="20" fill="#dcdab4" x="60" y="20"/><rect width="20" height="20" fill="#b19482" x="80" y="20"/><rect width="20" height="20" fill="#aa8d3d" y="40"/><rect width="20" height="20" fill="#ebc469" x="20" y="40"/><rect width="20" height="20" fill="#dbc699" x="40" y="40"/><rect width="20" height="20" fill="#f4e1c1" x="60" y="40"/><rect width="20" height="20" fill="#fff3f5" x="80" y="40"/><rect width="20" height="20" fill="#ffe0c3" y="60"/><rect width="20" height="20" fill="#f7cf9c" x="20" y="60"/><rect width="20" height="20" fill="#cb8144" x="40" y="60"/><rect width="20" height="20" fill="#c5a745" x="60" y="60"/><rect width="20" height="20" fill="#e0cb7c" x="80" y="60"/><rect width="20" height="20" fill="#fabd84" y="80"/><rect width="20" height="20" fill="#cf880a" x="20" y="80"/><rect width="20" height="20" fill="#cc9d33" x="40" y="80"/><rect width="20" height="20" fill="#f1c890" x="60" y="80"/><rect width="20" height="20" fill="#fddde0" x="80" y="80"/></g></svg>