<svg xmlns="http://www.w3.org/2000/svg" width="100" height="100"><g fill="#e1c138"><rect width="20" height="20"/><rect width="20" height="20" x="20"/><rect width="20" height="20" fill="#e2c239" x="40"/><rect width="20" height="20" fill="#dfbf36" x="60"/><rect width="20" height="20" fill="#dfbf36" x="80"/><rect width="20" height="20" fill="#e9cc4a" y="20"/><rect width="20" height="20" fill="#e9cb49" x="20" y="20"/><rect width="20" height="20" fill="#e7ca4c" x="40" y="20"/><rect width="20" height="20" fill="#e7c947" x="60" y="20"/><rect width="20" height="20" fill="#e4c840" x="80" y="20"/><rect width="20" height="20" fill="#f1d75c" y="40"/><rect width="20" height="20" fill="#2b2122" x="20" y="40"/><rect width="20" height="20" fill="#a37d36" x="40" y="40"/><rect width="20" height="20" fill="#c8a667" x="60" y="40"/><rect width="20" height="20" fill="#c9aa40" x="80" y="40"/><rect width="20" height="20" fill="#e7d350" y="60"/><rect width="20" height="20" fill="#1b0f00" x="20" y="60"/><rect width="20" height="20" fill="#9c7645" x="40" y="60"/><rect width="20" height="20" fill="#b1894c" x="60" y="60"/><rect width="20" height="20" fill="#bf9058" x="80" y="60"/><rect width="20" height="20" fill="#efda5d" y="80"/><rect width="20" height="20" fill="#f3d65e" x="20" y="80"/><rect width="20" height="20" fill="#2c1e11" x="40" y="80"/><rect width="20" height="20" fill="#0a0c07" x="60" y="80"/><rect width="20" height="20" fill="#0b0e07" x="80" y="80"/></g></svg>