<svg xmlns="http://www.w3.org/2000/svg" width="100" height="100"><g fill="#aa9383"><rect width="20" height="20"/><rect width="20" height="20" fill="#b5a3a1" x="20"/><rect width="20" height="20" fill="#8e8750" x="40"/><rect width="20" height="20" fill="#073451" x="60"/><rect width="20" height="20" fill="#0a3971" x="80"/><rect width="20" height="20" fill="#c6b19e" y="20"/><rect width="20" height="20" fill="#b7a484" x="20" y="20"/><rect width="20" height="20" fill="#151306" x="40" y="20"/><rect width="20" height="20" fill="#cca363" x="60" y="20"/><rect width="20" height="20" fill="#bba250" x="80" y="20"/><rect width="20" height="20" fill="#ebd8c9" y="40"/><rect width="20" height="20" fill="#8b97a5" x="20" y="40"/><rect width="20" height="20" fill="#30290f" x="40" y="40"/><rect width="20" height="20" fill="#937b4d" x="60" y="40"/><rect width="20" height="20" fill="#b9a640" x="80" y="40"/><rect width="20" height="20" fill="#decbbc" y="60"/><rect width="20" height="20" fill="#456b8f" x="20" y="60"/><rect width="20" height="20" fill="#7d643c" x="40" y="60"/><rect width="20" height="20" fill="#211b1f" x="60" y="60"/><rect width="20" height="20" fill="#feedd3" x="80" y="60"/><rect width="20" height="20" fill="#d0b69f" y="80"/><rect width="20" height="20" fill="#a4b3d4" x="20" y="80"/><rect width="20" height="20" fill="#fecd93" x="40" y="80"/><rect width="20" height="20" fill="#6c3a00" x="60" y="80"/><rect width="20" height="20" fill="#ead097" x="80" y="80"/></g></svg>