<svg xmlns="http://www.w3.org/2000/svg" width="100" height="100"><g fill="#9ad09f"><rect width="20" height="20"/><rect width="20" height="20" fill="#c2d1a6" x="20"/><rect width="20" height="20" fill="#c2d0af" x="40"/><rect width="20" height="20" fill="#f0f2f1" x="60"/><rect width="20" height="20" fill="#e3e8ec" x="80"/><rect width="20" height="20" fill="#abd281" y="20"/><rect width="20" height="20" fill="#b6d48c" x="20" y="20"/><rect width="20" height="20" fill="#efe4de" x="40" y="20"/><rect width="20" height="20" fill="#f2dcd1" x="60" y="20"/><rect width="20" height="20" fill="#f7edeb" x="80" y="20"/><rect width="20" height="20" fill="#ebd1c0" y="40"/><rect width="20" height="20" fill="#f4e2cc" x="20" y="40"/><rect width="20" height="20" fill="#e7d5af" x="40" y="40"/><rect width="20" height="20" fill="#ae9f5c" x="60" y="40"/><rect width="20" height="20" fill="#e2bf85" x="80" y="40"/><rect width="20" height="20" fill="#585a1b" y="60"/><rect width="20" height="20" fill="#d8b164" x="20" y="60"/><rect width="20" height="20" fill="#100b00" x="40" y="60"/><rect width="20" height="20" fill="#e7b576" x="60" y="60"/><rect width="20" height="20" fill="#6d5539" x="80" y="60"/><rect width="20" height="20" fill="#d9d492" y="80"/><rect width="20" height="20" fill="#f8eaad" x="20" y="80"/><rect width="20" height="20" fill="#efe1bc" x="40" y="80"/><rect width="20" height="20" fill="#7d5f2d" x="60" y="80"/><rect width="20" height="20" fill="#1e1a01" x="80" y="80"/></g></svg>