<svg xmlns="http://www.w3.org/2000/svg" width="100" height="100"><g fill="#9e8765"><rect width="20" height="20"/><rect width="20" height="20" fill="#8f8059" x="20"/><rect width="20" height="20" fill="#b6a78a" x="40"/><rect width="20" height="20" fill="#c2b7b3" x="60"/><rect width="20" height="20" fill="#ac9f8c" x="80"/><rect width="20" height="20" fill="#8e7650" y="20"/><rect width="20" height="20" fill="#886c45" x="20" y="20"/><rect width="20" height="20" fill="#c7b496" x="40" y="20"/><rect width="20" height="20" fill="#85714c" x="60" y="20"/><rect width="20" height="20" fill="#cfc7bc" x="80" y="20"/><rect width="20" height="20" fill="#8b7544" y="40"/><rect width="20" height="20" fill="#83633d" x="20" y="40"/><rect width="20" height="20" fill="#826539" x="40" y="40"/><rect width="20" height="20" fill="#ccc1bf" x="60" y="40"/><rect width="20" height="20" fill="#9c7943" x="80" y="40"/><rect width="20" height="20" fill="#9d8056" y="60"/><rect width="20" height="20" fill="#8a704f" x="20" y="60"/><rect width="20" height="20" fill="#a08b6e" x="40" y="60"/><rect width="20" height="20" fill="#998457" x="60" y="60"/><rect width="20" height="20" fill="#907049" x="80" y="60"/><rect width="20" height="20" fill="#b29a74" y="80"/><rect width="20" height="20" fill="#ad9e89" x="20" y="80"/><rect width="20" height="20" fill="#917a50" x="40" y="80"/><rect width="20" height="20" fill="#b6a685" x="60" y="80"/><rect width="20" height="20" fill="#a79275" x="80" y="80"/></g></svg>